P3
40 40
255
0 0 0  0 0 0  0 0 0  0 0 0  0 0 0  0 0 0
0 0 0  0 0 0  0 0 0  0 0 0  0 0 0  0 0 0
0 0 0  0 0 0  0 0 0  0 0 0  0 0 0  4 4 4
12 12 12  18 18 18  16 16 16  11 11 11  4 4 4  0 0 0
0 0 0  0 0 0  0 0 0  0 0 0  0 0 0  0 0 0
0 0 0  0 0 0  0 0 0  0 0 0  0 0 0  0 0 0
0 0 0  0 0 0  0 0 0  0 0 0
0 0 0  0 0 0  0 0 0  0 0 0  0 0 0  0 0 0
0 0 0  0 0 0  0 0 0  0 0 0  0 0 0  0 0 0
0 0 0  0 0 0  0 0 0  1 1 1  18 18 18  60 60 60
60 60 60  58 58 58  58 58 58  66 66 66  61 61 61  22 22 22
5 5 5  0 0 0  0 0 0  0 0 0  0 0 0  0 0 0
0 0 0  0 0 0  0 0 0  0 0 0  0 0 0  0 0 0
0 0 0  0 0 0  0 0 0  0 0 0
0 0 0  0 0 0  0 0 0  0 0 0  0 0 0  0 0 0
0 0 0  0 0 0  0 0 0  0 0 0  0 0 0  0 0 0
0 0 0  0 0 0  0 0 0  24 24 24  69 69 69  12 12 13
0 0 3  0 0 4  0 0 4  0 0 2  9 9 11  63 63 62
45 45 45  6 6 6  0 0 0  0 0 0  0 0 0  0 0 0
0 0 0  0 0 0  0 0 0  0 0 0  0 0 0  0 0 0
0 0 0  0 0 0  0 0 0  0 0 0
0 0 0  0 0 0  0 0 0  0 0 0  0 0 0  0 0 0
0 0 0  0 0 0  0 0 0  0 0 0  0 0 0  0 0 0
0 0 0  0 0 0  14 14 14  70 70 70  1 1 4  2 2 6
2 2 6  2 2 6  2 2 6  8 8 10  74 74 74  9 9 11
48 48 49  41 41 42  2 2 2  0 0 0  0 0 0  0 0 0
0 0 0  0 0 0  0 0 0  0 0 0  0 0 0  0 0 0
0 0 0  0 0 0  0 0 0  0 0 0
0 0 0  0 0 0  0 0 0  0 0 0  0 0 0  0 0 0
0 0 0  0 0 0  0 0 0  0 0 0  0 0 0  0 0 0
0 0 0  0 0 0  34 34 34  41 41 42  1 1 6  2 2 6
2 2 6  2 2 6  2 2 6  12 12 13  75 75 75  28 28 29
0 0 0  70 70 70  18 18 18  0 0 0  0 0 0  0 0 0
0 0 0  0 0 0  0 0 0  0 0 0  0 0 0  0 0 0
0 0 0  0 0 0  0 0 0  0 0 0
0 0 0  0 0 0  0 0 0  0 0 0  0 0 0  0 0 0
0 0 0  0 0 0  0 0 0  0 0 0  0 0 0  0 0 0
0 0 0  2 2 2  64 64 64  7 7 9  1 1 6  1 1 5
2 2 6  2 2 6  2 2 6  3 3 6  0 0 4  1 1 5
2 2 6  33 33 35  40 40 40  2 2 2  0 0 0  0 0 0
0 0 0  0 0 0  0 0 0  0 0 0  0 0 0  0 0 0
0 0 0  0 0 0  0 0 0  0 0 0
0 0 0  0 0 0  0 0 0  0 0 0  0 0 0  0 0 0
0 0 0  0 0 0  0 0 0  0 0 0  0 0 0  0 0 0
0 0 0  5 5 5  70 70 70  0 0 0  0 0 0  17 17 18
1 1 4  2 2 6  0 0 3  8 8 10  18 18 18  5 5 7
2 2 6  2 2 4  67 67 67  4 4 4  0 0 0  0 0 0
0 0 0  0 0 0  0 0 0  0 0 0  0 0 0  0 0 0
0 0 0  0 0 0  0 0 0  0 0 0
0 0 0  0 0 0  0 0 0  0 0 0  0 0 0  0 0 0
0 0 0  0 0 0  0 0 0  0 0 0  0 0 0  0 0 0
0 0 0  5 5 5  73 73 73  0 0 0  124 117 105  102 102 103
5 5 7  0 0 2  99 93 82  198 196 191  124 117 105  7 7 7
1 1 6  0 0 0  74 74 74  7 7 7  0 0 0  0 0 0
0 0 0  0 0 0  0 0 0  0 0 0  0 0 0  0 0 0
0 0 0  0 0 0  0 0 0  0 0 0
0 0 0  0 0 0  0 0 0  0 0 0  0 0 0  0 0 0
0 0 0  0 0 0  0 0 0  0 0 0  0 0 0  0 0 0
0 0 0  4 4 4  71 72 73  28 29 30  187 187 186  213 213 213
40 40 40  11 11 11  250 250 250  79 79 79  213 213 213  51 51 52
2 2 6  0 0 2  69 69 69  12 12 12  0 0 0  0 0 0
0 0 0  0 0 0  0 0 0  0 0 0  0 0 0  0 0 0
0 0 0  0 0 0  0 0 0  0 0 0
0 0 0  0 0 0  0 0 0  0 0 0  0 0 0  0 0 0
0 0 0  0 0 0  0 0 0  0 0 0  0 0 0  0 0 0
0 0 0  5 5 5  73 73 73  55 56 58  51 51 52  96 98 99
89 81 53  73 57 8  187 187 186  0 0 0  102 102 103  102 102 103
1 1 6  0 0 1  75 75 75  11 11 11  0 0 0  0 0 0
0 0 0  0 0 0  0 0 0  0 0 0  0 0 0  0 0 0
0 0 0  0 0 0  0 0 0  0 0 0
0 0 0  0 0 0  0 0 0  0 0 0  0 0 0  0 0 0
0 0 0  0 0 0  0 0 0  0 0 0  0 0 0  0 0 0
0 0 0  3 3 3  69 69 69  6 6 6  187 187 186  155 111 1
244 189 12  229 181 15  236 189 17  99 69 16  198 196 191  33 33 35
2 2 6  0 0 2  70 70 70  14 14 14  0 0 0  0 0 0
0 0 0  0 0 0  0 0 0  0 0 0  0 0 0  0 0 0
0 0 0  0 0 0  0 0 0  0 0 0
0 0 0  0 0 0  0 0 0  0 0 0  0 0 0  0 0 0
0 0 0  0 0 0  0 0 0  0 0 0  0 0 0  0 0 0
0 0 0  3 3 3  64 64 64  11 10 10  175 119 7  238 180 9
236 189 17  236 189 17  246 190 14  246 190 14  241 186 12  73 57 8
1 1 6  0 0 3  69 69 69  22 22 22  0 0 0  0 0 0
0 0 0  0 0 0  0 0 0  0 0 0  0 0 0  0 0 0
0 0 0  0 0 0  0 0 0  0 0 0
0 0 0  0 0 0  0 0 0  0 0 0  0 0 0  0 0 0
0 0 0  0 0 0  0 0 0  0 0 0  0 0 0  0 0 0
0 0 0  3 3 3  55 56 58  49 42 30  191 145 12  241 186 12
236 189 17  246 190 14  236 189 17  214 154 7  214 154 7  73 57 8
17 17 18  0 0 1  41 41 42  43 43 43  2 2 2  0 0 0
0 0 0  0 0 0  0 0 0  0 0 0  0 0 0  0 0 0
0 0 0  0 0 0  0 0 0  0 0 0
0 0 0  0 0 0  0 0 0  0 0 0  0 0 0  0 0 0
0 0 0  0 0 0  0 0 0  0 0 0  0 0 0  0 0 0
0 0 0  2 2 2  61 61 61  19 19 21  140 114 62  190 132 8
217 164 22  191 145 12  190 132 8  200 149 30  204 191 128  67 67 67
22 23 23  124 117 105  1 1 4  79 79 79  13 13 13  0 0 0
0 0 0  0 0 0  0 0 0  0 0 0  0 0 0  0 0 0
0 0 0  0 0 0  0 0 0  0 0 0
0 0 0  0 0 0  0 0 0  0 0 0  0 0 0  0 0 0
0 0 0  0 0 0  0 0 0  0 0 0  0 0 0  0 0 0
0 0 0  14 14 14  79 79 79  0 0 0  187 187 186  186 166 112
175 121 9  175 119 7  190 157 66  187 187 186  234 234 234  187 187 186
0 0 0  28 29 30  0 0 4  43 43 43  43 43 43  3 3 3
0 0 0  0 0 0  0 0 0  0 0 0  0 0 0  0 0 0
0 0 0  0 0 0  0 0 0  0 0 0
0 0 0  0 0 0  0 0 0  0 0 0  0 0 0  0 0 0
0 0 0  0 0 0  0 0 0  0 0 0  0 0 0  0 0 0
6 6 6  54 55 56  45 45 45  44 45 48  252 252 252  187 187 186
198 196 191  198 196 191  206 206 206  242 242 242  253 253 253  255 255 255
66 66 66  1 1 6  2 2 6  0 0 2  75 75 75  19 19 19
0 0 0  0 0 0  0 0 0  0 0 0  0 0 0  0 0 0
0 0 0  0 0 0  0 0 0  0 0 0
0 0 0  0 0 0  0 0 0  0 0 0  0 0 0  0 0 0
0 0 0  0 0 0  0 0 0  0 0 0  0 0 0  3 3 3
37 37 37  61 61 61  0 0 0  213 213 213  253 253 253  235 235 235
206 206 206  228 228 228  254 254 254  253 253 253  253 253 253  252 252 252
206 206 206  0 0 0  2 2 6  2 2 6  21 21 22  70 70 70
13 13 13  0 0 0  0 0 0  0 0 0  0 0 0  0 0 0
0 0 0  0 0 0  0 0 0  0 0 0
0 0 0  0 0 0  0 0 0  0 0 0  0 0 0  0 0 0
0 0 0  0 0 0  0 0 0  0 0 0  0 0 0  24 24 24
75 75 75  0 0 3  75 75 75  255 255 255  253 253 253  253 253 253
254 254 254  253 253 253  253 253 253  253 253 253  253 253 253  253 253 253
255 255 255  5 5 6  2 2 6  2 2 6  1 1 5  37 37 38
58 58 58  7 7 7  0 0 0  0 0 0  0 0 0  0 0 0
0 0 0  0 0 0  0 0 0  0 0 0
0 0 0  0 0 0  0 0 0  0 0 0  0 0 0  0 0 0
0 0 0  0 0 0  0 0 0  0 0 0  12 12 12  70 70 70
3 3 6  0 0 2  124 117 105  236 236 236  250 250 250  247 247 247
234 234 234  247 247 247  251 251 251  244 244 244  228 228 228  225 225 225
213 213 213  69 69 69  1 1 6  0 0 4  2 2 6  0 0 4
49 48 49  37 37 37  2 2 2  0 0 0  0 0 0  0 0 0
0 0 0  0 0 0  0 0 0  0 0 0
0 0 0  0 0 0  0 0 0  0 0 0  0 0 0  0 0 0
0 0 0  0 0 0  0 0 0  0 0 0  31 31 31  45 45 45
2 2 5  0 0 1  187 187 186  242 242 242  252 252 252  252 252 252
244 244 244  253 253 253  253 253 253  252 252 252  244 244 244  228 228 228
206 206 206  213 213 213  14 14 15  32 32 31  7 7 9  2 2 6
0 0 0  73 73 73  13 13 13  0 0 0  0 0 0  0 0 0
0 0 0  0 0 0  0 0 0  0 0 0
0 0 0  0 0 0  0 0 0  0 0 0  0 0 0  0 0 0
0 0 0  0 0 0  0 0 0  4 4 4  64 64 64  14 14 15
28 28 29  79 79 79  255 255 255  253 253 253  253 253 253  253 253 253
253 253 253  253 253 253  253 253 253  253 253 253  253 253 253  253 253 253
254 254 254  225 225 225  124 117 105  0 0 2  29 29 29  1 1 4
1 1 5  48 48 49  32 32 31  0 0 0  0 0 0  0 0 0
0 0 0  0 0 0  0 0 0  0 0 0
0 0 0  0 0 0  0 0 0  0 0 0  0 0 0  0 0 0
0 0 0  0 0 0  0 0 0  13 13 13  74 74 74  16 16 16
0 0 0  228 228 228  252 252 252  253 253 253  252 252 252  252 252 252
253 253 253  253 253 253  253 253 253  253 253 253  253 253 253  253 253 253
252 252 252  253 253 253  250 250 250  18 18 18  37 37 37  24 24 24
1 1 5  9 9 11  66 66 66  4 4 4  0 0 0  0 0 0
0 0 0  0 0 0  0 0 0  0 0 0
0 0 0  0 0 0  0 0 0  0 0 0  0 0 0  0 0 0
0 0 0  0 0 0  3 3 3  34 34 34  49 48 49  24 24 24
79 79 79  255 255 255  253 253 253  253 253 253  253 253 253  242 242 242
253 253 253  253 253 253  253 253 253  253 253 253  253 253 253  253 253 253
253 253 253  253 253 253  255 255 255  51 51 52  0 0 4  24 24 24
0 0 3  0 0 2  69 69 69  15 15 15  0 0 0  0 0 0
0 0 0  0 0 0  0 0 0  0 0 0
0 0 0  0 0 0  0 0 0  0 0 0  0 0 0  0 0 0
0 0 0  0 0 0  11 11 11  79 79 79  5 5 6  11 11 11
187 187 186  252 252 252  253 253 253  253 253 253  253 253 253  237 237 237
253 253 253  253 253 253  253 253 253  253 253 253  253 253 253  253 253 253
253 253 253  253 253 253  255 255 255  96 98 99  2 2 6  24 24 24
0 0 3  1 1 6  49 48 49  24 24 24  0 0 0  0 0 0
0 0 0  0 0 0  0 0 0  0 0 0
0 0 0  0 0 0  0 0 0  0 0 0  0 0 0  0 0 0
0 0 0  3 3 3  38 38 38  43 43 43  20 20 22  0 0 0
253 253 253  253 253 253  253 253 253  253 253 253  254 254 254  234 234 234
253 253 253  253 253 253  253 253 253  253 253 253  253 253 253  253 253 253
253 253 253  253 253 253  254 254 254  124 117 105  1 1 5  20 20 20
0 0 4  2 2 6  38 38 40  38 38 38  2 2 2  0 0 0
0 0 0  0 0 0  0 0 0  0 0 0
0 0 0  0 0 0  0 0 0  0 0 0  0 0 0  0 0 0
0 0 0  6 6 6  67 67 67  0 0 0  37 37 38  22 23 23
255 255 255  253 253 253  253 253 253  253 253 253  254 254 254  235 235 235
253 253 253  253 253 253  253 253 253  253 253 253  253 253 253  253 253 253
253 253 253  253 253 253  254 254 254  124 117 105  0 0 4  18 18 18
1 1 5  2 2 6  33 33 35  43 43 43  2 2 2  0 0 0
0 0 0  0 0 0  0 0 0  0 0 0
0 0 0  0 0 0  0 0 0  0 0 0  0 0 0  0 0 0
0 0 0  11 10 10  63 63 62  0 0 2  0 0 6  49 48 49
255 255 255  253 253 253  253 253 253  253 253 253  254 254 254  236 236 236
253 253 253  253 253 253  253 253 253  253 253 253  253 253 253  253 253 253
253 253 253  253 253 253  255 255 255  102 102 103  17 17 18  19 17 16
14 14 15  0 0 2  38 38 40  37 37 37  2 2 2  0 0 0
0 0 0  0 0 0  0 0 0  0 0 0
0 0 0  0 0 0  0 0 0  0 0 0  0 0 0  0 0 0
3 3 3  18 18 18  96 98 99  190 132 8  226 175 13  33 26 14
225 225 225  253 253 253  253 253 253  253 253 253  254 254 254  237 237 237
253 253 253  253 253 253  253 253 253  253 253 253  253 253 253  253 253 253
253 253 253  250 249 246  229 219 153  89 81 53  2 2 6  0 0 5
3 3 5  54 55 56  55 56 58  32 32 31  2 2 2  0 0 0
0 0 0  0 0 0  0 0 0  0 0 0
0 0 0  0 0 0  0 0 0  0 0 0  6 6 6  29 30 32
55 56 58  79 79 79  176 140 52  238 180 9  245 190 13  239 183 13
13 13 12  198 196 191  255 255 255  252 252 252  254 254 254  236 236 236
253 253 253  253 253 253  253 253 253  253 253 253  253 253 253  253 253 253
253 253 253  229 219 153  245 190 13  143 113 30  0 0 5  2 2 6
2 2 5  33 26 14  236 189 17  45 47 55  2 2 2  0 0 0
0 0 0  0 0 0  0 0 0  0 0 0
0 0 0  0 0 0  0 0 0  0 0 0  29 30 32  153 121 45
221 163 10  214 154 7  230 172 11  245 190 14  246 189 14  246 189 14
191 145 12  0 0 0  124 117 105  255 255 255  252 252 252  254 254 254
252 252 252  253 253 253  253 253 253  253 253 253  253 253 253  253 253 253
247 247 247  216 195 139  240 183 11  157 106 6  0 0 5  0 0 5
4 3 5  191 145 12  244 189 12  77 73 69  7 7 7  0 0 0
0 0 0  0 0 0  0 0 0  0 0 0
0 0 0  0 0 0  0 0 0  2 2 2  48 49 54  217 164 22
243 187 13  246 189 14  246 190 14  246 189 14  246 190 14  245 190 14
246 190 14  73 57 8  0 0 0  70 70 70  255 255 255  252 252 252
253 253 253  253 253 253  253 253 253  253 253 253  253 253 253  253 253 253
228 228 228  204 191 128  230 172 11  214 154 7  175 121 9  157 106 6
214 154 7  239 183 13  246 188 13  153 128 71  31 31 31  5 5 5
0 0 0  0 0 0  0 0 0  0 0 0
0 0 0  0 0 0  0 0 0  4 4 4  48 49 54  200 149 30
241 186 12  246 190 14  246 190 14  246 190 14  246 190 14  246 190 14
246 189 14  229 181 15  1 0 5  0 0 2  124 117 105  253 253 253
253 253 253  253 253 253  253 253 253  253 253 253  253 253 253  253 253 253
237 237 237  193 174 119  228 173 10  230 172 11  221 163 10  221 163 10
238 180 9  246 190 14  246 190 14  241 182 13  102 102 103  32 32 34
5 5 5  0 0 0  0 0 0  0 0 0
0 0 0  0 0 0  0 0 0  1 1 1  43 44 47  190 143 36
241 186 12  246 189 14  246 190 14  246 190 14  246 190 14  246 190 14
245 190 14  246 190 13  155 111 1  19 19 21  198 196 191  253 253 253
253 253 253  253 253 253  253 253 253  253 253 253  253 253 253  253 253 253
213 213 213  99 69 16  230 172 11  244 187 14  243 187 13  243 187 13
245 188 14  245 190 14  246 189 14  246 190 14  246 190 13  157 134 68
22 23 23  0 0 0  0 0 0  0 0 0
0 0 0  0 0 0  0 0 0  4 4 4  55 56 58  199 148 32
241 182 13  246 190 14  246 190 14  246 190 14  246 190 14  246 190 14
246 190 14  246 189 14  244 189 12  223 215 196  255 255 255  253 253 253
253 253 253  253 253 253  253 253 253  252 252 252  255 255 255  187 187 186
0 0 4  99 69 16  230 172 11  246 189 14  246 190 14  246 190 14
246 190 14  246 190 14  246 190 14  246 190 13  243 187 13  214 168 46
29 31 36  2 2 2  0 0 0  0 0 0
0 0 0  0 0 0  0 0 0  11 11 11  84 79 69  214 154 7
245 188 14  246 190 13  245 190 14  246 190 14  246 190 14  246 190 14
246 190 14  246 190 14  239 183 13  175 121 9  187 187 186  255 255 255
255 255 255  255 255 255  255 255 255  187 187 186  58 58 58  0 0 0
0 0 6  99 69 16  230 172 11  246 189 14  246 190 14  246 190 14
246 190 13  246 190 14  246 189 14  238 180 9  199 148 32  76 71 60
14 14 14  0 0 0  0 0 0  0 0 0
0 0 0  0 0 0  0 0 0  11 11 11  114 95 58  214 154 7
230 172 11  238 180 9  240 184 12  243 187 13  246 189 14  246 190 14
245 190 14  245 190 13  240 184 12  190 132 8  33 26 14  0 0 0
19 19 21  11 11 11  0 0 0  0 0 0  2 2 6  2 2 6
0 0 5  157 106 6  221 163 10  246 190 14  246 190 13  245 188 14
240 184 12  230 172 11  190 143 36  99 93 82  44 45 48  15 15 15
0 0 0  0 0 0  0 0 0  0 0 0
0 0 0  0 0 0  0 0 0  3 3 3  34 36 41  114 95 58
140 108 42  175 121 9  190 132 8  190 132 8  214 154 7  230 172 11
241 182 13  241 182 13  221 163 10  157 106 6  51 44 24  0 0 0
12 12 13  17 17 19  17 17 19  17 17 19  17 17 19  2 2 5
0 0 0  99 69 16  191 145 12  230 172 11  241 182 13  230 172 11
190 132 8  140 114 62  55 56 58  18 18 18  3 3 3  0 0 0
0 0 0  0 0 0  0 0 0  0 0 0
0 0 0  0 0 0  0 0 0  0 0 0  3 3 3  16 16 16
29 30 32  55 56 58  79 79 79  100 89 69  127 97 44  157 106 6
175 119 7  175 121 9  157 106 6  99 69 16  69 68 66  99 93 82
64 64 64  60 60 60  60 60 60  60 60 60  60 60 60  70 70 70
96 98 99  91 71 33  157 106 6  190 132 8  190 132 8  157 106 6
100 89 69  37 38 39  7 7 7  0 0 0  0 0 0  0 0 0
0 0 0  0 0 0  0 0 0  0 0 0
0 0 0  0 0 0  0 0 0  0 0 0  0 0 0  0 0 0
0 0 0  2 2 2  9 9 9  21 21 22  37 37 38  71 72 73
89 81 53  93 73 38  93 73 38  77 73 69  34 34 34  7 7 7
3 3 3  3 3 3  3 3 3  2 2 2  3 3 3  3 3 3
19 19 19  64 64 64  93 73 38  93 73 38  103 86 54  75 75 75
29 29 29  5 5 5  0 0 0  0 0 0  0 0 0  0 0 0
0 0 0  0 0 0  0 0 0  0 0 0
0 0 0  0 0 0  0 0 0  0 0 0  0 0 0  0 0 0
0 0 0  0 0 0  0 0 0  0 0 0  1 1 1  7 7 7
18 18 18  29 30 32  28 29 30  13 13 13  1 1 1  0 0 0
0 0 0  0 0 0  0 0 0  0 0 0  0 0 0  0 0 0
0 0 0  9 9 9  28 28 29  38 38 40  28 29 30  13 13 13
1 1 1  0 0 0  0 0 0  0 0 0  0 0 0  0 0 0
0 0 0  0 0 0  0 0 0  0 0 0
